<svg height="55" viewBox="0 0 765 278" fill="none" xmlns="http://www.w3.org/2000/svg">
                    <g clip-path="url(#clip0_1_284)">
                        <path d="M309.999 82.7738C308.066 82.7738 305.127 82.1552 303.194 81.2271V74.1905C304.74 75.0411 306.906 75.6597 308.916 75.6597C311.545 75.6597 313.942 74.7318 315.102 72.3347L294.92 27.8722H303.658L318.968 63.2102H319.664L331.727 27.8722H340.156L323.531 72.5666C320.824 79.6806 316.958 82.7738 309.999 82.7738ZM347.774 82.0005V27.8722H355.97V51.4567H356.357L378.472 27.8722H388.37L364.321 52.7712L390.612 82.0005H380.096L356.357 55.3229H355.97V82.0005H347.774ZM398.066 82.0005V27.8722H416.547C427.991 27.8722 435.646 34.6769 435.646 45.2706V45.7345C435.646 56.4055 428.145 63.2875 416.701 63.2875H406.262V82.0005H398.066ZM406.108 56.2509H416.237C423.274 56.2509 427.295 52.2299 427.295 45.8119V45.4252C427.295 39.0845 423.274 35.2182 416.315 35.2182H406.108V56.2509ZM434.374 82.0005L453.86 27.8722H464.995L484.404 82.0005H475.589L470.717 67.8498H448.138L443.266 82.0005H434.374ZM450.458 60.7358H468.397L459.659 35.6822H459.195L450.458 60.7358ZM488.689 22.6141C486.369 22.6141 484.59 20.9129 484.59 18.4385C484.59 16.0414 486.369 14.1855 488.689 14.1855C491.086 14.1855 492.942 16.0414 492.942 18.4385C492.942 20.9129 491.086 22.6141 488.689 22.6141ZM502.453 22.6141C500.056 22.6141 498.354 20.9129 498.354 18.4385C498.354 16.0414 500.056 14.1855 502.453 14.1855C504.85 14.1855 506.706 16.0414 506.706 18.4385C506.706 20.9129 504.85 22.6141 502.453 22.6141ZM491.627 82.0005V27.8722H499.746V82.0005H491.627ZM513.979 82.0005V27.8722H522.176V50.6061H547.075V27.8722H555.271V82.0005H547.075V58.0294H522.176V82.0005H513.979ZM591.906 82.7738C576.364 82.7738 565.693 71.0201 565.693 55.091V54.7817C565.693 38.8525 576.518 27.099 591.906 27.099H591.983C601.34 27.099 608.84 31.8932 612.939 38.7752L606.366 43.1828C603.428 37.8473 598.633 34.7542 592.138 34.7542C581.08 34.7542 574.198 42.9508 574.198 54.7817V55.091C574.198 66.9218 581.158 75.0411 592.138 75.0411C598.788 75.0411 603.892 71.948 606.753 66.6899L613.093 71.0974C609.15 77.9021 601.34 82.7738 591.983 82.7738H591.906ZM622.039 82.0005V27.8722H630.236V47.4357H641.603C652.815 47.4357 660.315 54.0857 660.315 64.4474V64.7567C660.315 75.1957 652.969 82.0005 641.68 82.0005H622.039ZM630.081 74.6544H640.907C647.943 74.6544 652.042 71.0201 652.042 64.7567V64.3701C652.042 58.184 647.943 54.5497 640.829 54.5497H630.081V74.6544ZM670.594 82.0005V27.8722H678.791V51.4567H679.177L701.293 27.8722H711.19L687.142 52.7712L713.433 82.0005H702.917L679.177 55.3229H678.791V82.0005H670.594ZM714.152 82.0005L733.638 27.8722H744.773L764.182 82.0005H755.366L750.495 67.8498H727.916L723.044 82.0005H714.152ZM730.236 60.7358H748.175L739.437 35.6822H738.973L730.236 60.7358ZM294.07 162L313.556 107.872H324.691L344.099 162H335.284L330.413 147.849H307.834L302.962 162H294.07ZM310.153 140.735H328.093L319.355 115.682H318.891L310.153 140.735ZM351.323 162V107.872H359.519V131.456H359.906L382.021 107.872H391.919L367.87 132.771L394.161 162H383.645L359.906 135.323H359.519V162H351.323ZM394.88 162L414.366 107.872H425.501L444.91 162H436.095L431.223 147.849H408.644L403.773 162H394.88ZM410.964 140.735H428.904L420.166 115.682H419.702L410.964 140.735ZM446.489 172.439V154.731H450.278C453.989 150.942 455.613 137.642 455.613 113.594V107.872H490.951V154.731H497.06V172.439H489.25V162H454.376V172.439H446.489ZM463.5 115.063V116.223C463.423 135.787 461.645 148.081 458.319 154.731H482.909V115.063H463.5ZM506.277 162V107.872H538.831V115.295H514.473V130.838H537.284V138.029H514.473V154.577H539.604V162H506.277ZM550.905 162V107.872H562.891L577.66 143.751H578.201L592.971 107.872H604.956V162H596.914V118.002H596.45L581.372 154.422H574.567L559.411 118.002H558.947V162H550.905ZM619.17 162V107.872H627.289V162H619.17ZM635.799 162L648.636 140.581C641.908 138.029 637.423 132.307 637.423 125.193V124.033C637.423 113.903 645.542 107.872 658.069 107.872H677.246V162H669.127V142.437H656.6L645.388 162H635.799ZM669.204 135.477V115.14H658.688C650.723 115.14 645.852 118.388 645.852 124.42V125.425C645.852 131.379 650.569 135.477 658.688 135.477H669.204ZM299.56 242.773C297.936 242.773 296.467 242.464 294.997 242V234.809C296.157 235.195 297.24 235.427 298.554 235.427C304.972 235.427 305.746 228.7 306.21 205.657L306.596 187.872H341.316V242H333.119V195.295H314.484L314.174 206.43C313.633 233.571 311.854 242.773 299.56 242.773ZM355.551 242V187.872H363.671V242H355.551ZM372.259 252.439V234.731H376.048C379.759 230.942 381.383 217.642 381.383 193.594V187.872H416.721V234.731H422.83V252.439H415.02V242H380.146V252.439H372.259ZM389.27 195.063V196.223C389.193 215.787 387.415 228.081 384.09 234.731H408.679V195.063H389.27ZM432.047 242V187.872H464.601V195.295H440.243V210.838H463.054V218.029H440.243V234.577H465.374V242H432.047ZM476.675 242V187.872H495.156C506.6 187.872 514.256 194.677 514.256 205.27V205.734C514.256 216.405 506.755 223.287 495.311 223.287H484.872V242H476.675ZM484.717 216.25H494.847C501.884 216.25 505.905 212.23 505.905 205.811V205.425C505.905 199.084 501.884 195.218 494.924 195.218H484.717V216.25ZM546.975 242.773C531.433 242.773 520.762 231.02 520.762 215.091V214.781C520.762 198.852 531.588 187.099 546.975 187.099H547.053C556.409 187.099 563.91 191.893 568.008 198.775L561.435 203.182C558.497 197.847 553.703 194.754 547.207 194.754C536.15 194.754 529.268 202.95 529.268 214.781V215.091C529.268 226.921 536.227 235.041 547.207 235.041C553.858 235.041 558.961 231.948 561.822 226.689L568.163 231.097C564.219 237.902 556.409 242.773 547.053 242.773H546.975ZM587.378 242V195.295H571.604V187.872H611.272V195.295H595.498V242H587.378ZM619.396 242V187.872H638.418C649.089 187.872 656.281 193.362 656.281 201.559V201.945C656.281 206.585 654.27 210.374 650.172 213.157C655.971 215.632 659.142 220.426 659.142 226.38V226.767C659.142 236.046 651.95 242 640.815 242H619.396ZM627.361 210.992H638.65C644.604 210.992 648.007 207.899 648.007 203.028V202.641C648.007 198.156 644.682 195.14 638.65 195.14H627.361V210.992ZM627.361 234.654H640.429C646.924 234.654 650.868 231.484 650.868 226.38V226.071C650.868 220.89 646.847 217.72 640.429 217.72H627.361V234.654ZM662.803 242L682.289 187.872H693.424L712.832 242H704.017L699.146 227.849H676.567L671.695 242H662.803ZM678.886 220.735H696.826L688.088 195.682H687.624L678.886 220.735Z" fill="black"/>
                        <mask id="mask0_1_284" style="mask-type:luminance" maskUnits="userSpaceOnUse" x="0" y="0" width="224" height="278">
                            <path d="M223.993 0H0V277.809H223.993V0Z" fill="white"/>
                        </mask>
                        <g mask="url(#mask0_1_284)">
                            <path d="M112.003 277.809C50.2406 277.809 0 227.556 0 165.778V0H223.993V165.778C223.993 227.543 173.752 277.796 112.003 277.796V277.809ZM11.4705 11.4734V165.778C11.4705 221.22 56.5621 266.323 112.003 266.323C167.443 266.323 212.522 221.22 212.522 165.778V11.4734H11.4705Z" fill="black"/>
                            <path d="M144.459 193.017H163.487L119.249 57.2734H104.746L60.5078 193.017H79.536L89.9104 161.172H134.072L144.446 193.017H144.459ZM111.997 93.4146L122.423 125.388L127.878 142.139H96.1172L104.236 117.229L111.997 93.4146Z" fill="black"/>
                        </g>
                    </g>
                    <defs>
                        <clipPath id="clip0_1_284">
                            <rect width="765" height="278" fill="white"/>
                        </clipPath>
                    </defs>
                </svg>